<svg width="216" height="108" viewBox="0 0 216 108" fill="none" xmlns="http://www.w3.org/2000/svg">
<path fill-rule="evenodd" clip-rule="evenodd" d="M78 16V60H138V16H78ZM118 56H134V40H118V56ZM134 36V20H102V36H134ZM98 36V20H82V36H98ZM114 56V40H82V56H114Z" fill="white"/>
<path d="M22.8864 92.3962C21.4696 92.3962 20.2245 92.1708 19.1512 91.72C18.0779 91.2477 17.2192 90.6037 16.5752 89.788C15.9312 88.9722 15.5448 88.0277 15.416 86.9544H19.5698C19.6986 87.5769 20.0421 88.1136 20.6002 88.5644C21.1798 88.9937 21.9204 89.2084 22.822 89.2084C23.7236 89.2084 24.3783 89.0259 24.7862 88.661C25.2155 88.296 25.4302 87.8774 25.4302 87.4052C25.4302 86.7182 25.1297 86.2567 24.5286 86.0206C23.9275 85.763 23.0903 85.5161 22.017 85.28C21.3301 85.1297 20.6324 84.9472 19.924 84.7325C19.2156 84.5179 18.5609 84.2495 17.9598 83.9275C17.3802 83.5841 16.9079 83.1547 16.543 82.6395C16.1781 82.1029 15.9956 81.4481 15.9956 80.6753C15.9956 79.2585 16.5537 78.0671 17.67 77.1011C18.8077 76.1351 20.3963 75.6521 22.4356 75.6521C24.3247 75.6521 25.8273 76.0922 26.9436 76.9723C28.0814 77.8525 28.7576 79.0653 28.9722 80.6109H25.076C24.8399 79.4303 23.949 78.8399 22.4034 78.8399C21.6306 78.8399 21.0295 78.9902 20.6002 79.2907C20.1923 79.5913 19.9884 79.9669 19.9884 80.4177C19.9884 80.89 20.2997 81.2657 20.9222 81.5447C21.5447 81.8238 22.3712 82.0814 23.4016 82.3175C24.5179 82.5751 25.5375 82.8649 26.4606 83.1869C27.4051 83.4875 28.1565 83.949 28.7146 84.5715C29.2727 85.1726 29.5518 86.042 29.5518 87.1798C29.5733 88.1672 29.3157 89.0581 28.779 89.8524C28.2423 90.6466 27.4696 91.2692 26.4606 91.72C25.4517 92.1708 24.2603 92.3962 22.8864 92.3962Z" fill="white"/>
<path d="M38.8501 92.0098C37.1757 92.0098 35.834 91.6019 34.8251 90.7862C33.8161 89.9704 33.3117 88.5214 33.3117 86.4392V79.4839H30.5747V76.0385H33.3117L33.7947 71.7559H37.4333V76.0385H41.7481V79.4839H37.4333V86.4714C37.4333 87.2442 37.5943 87.7808 37.9163 88.0814C38.2597 88.3604 38.8393 88.5 39.6551 88.5H41.6515V92.0098H38.8501Z" fill="white"/>
<path d="M44.3208 92.0098V76.0385H47.9916L48.378 79.0331C48.9576 78.0027 49.7411 77.187 50.7286 76.5859C51.7375 75.9634 52.9182 75.6521 54.2706 75.6521V79.9991H53.1114C52.2098 79.9991 51.4048 80.1387 50.6964 80.4177C49.988 80.6968 49.4299 81.1798 49.022 81.8667C48.6356 82.5537 48.4424 83.5089 48.4424 84.7325V92.0098H44.3208Z" fill="white"/>
<path d="M62.4328 92.3962C60.4364 92.3962 58.8908 91.7736 57.796 90.5286C56.7227 89.2835 56.186 87.4588 56.186 85.0546V76.0385H60.2754V84.6681C60.2754 86.042 60.5545 87.0939 61.1126 87.8238C61.6707 88.5536 62.5509 88.9186 63.753 88.9186C64.8907 88.9186 65.8245 88.5107 66.5544 87.695C67.3057 86.8792 67.6814 85.7415 67.6814 84.2817V76.0385H71.803V92.0098H68.1644L67.8424 89.305C67.3487 90.2495 66.6295 91.0008 65.685 91.559C64.7619 92.1171 63.6779 92.3962 62.4328 92.3962Z" fill="white"/>
<path d="M82.2486 92.3962C80.6172 92.3962 79.1789 92.042 77.9338 91.3336C76.6888 90.6252 75.7013 89.6377 74.9714 88.3712C74.263 87.1046 73.9088 85.6556 73.9088 84.0241C73.9088 82.3927 74.263 80.9437 74.9714 79.6771C75.7013 78.4106 76.6888 77.4231 77.9338 76.7147C79.1789 76.0063 80.6172 75.6521 82.2486 75.6521C84.288 75.6521 86.0053 76.1888 87.4006 77.2621C88.796 78.314 89.6868 79.7737 90.0732 81.6413H85.7262C85.5116 80.8685 85.0822 80.2675 84.4382 79.8381C83.8157 79.3873 83.0751 79.1619 82.2164 79.1619C81.0787 79.1619 80.1127 79.5913 79.3184 80.4499C78.5242 81.3086 78.127 82.5 78.127 84.0241C78.127 85.5483 78.5242 86.7397 79.3184 87.5984C80.1127 88.457 81.0787 88.8864 82.2164 88.8864C83.0751 88.8864 83.8157 88.6717 84.4382 88.2424C85.0822 87.813 85.5116 87.2012 85.7262 86.407H90.0732C89.6868 88.2102 88.796 89.6592 87.4006 90.754C86.0053 91.8488 84.288 92.3962 82.2486 92.3962Z" fill="white"/>
<path d="M99.5596 92.0098C97.8852 92.0098 96.5436 91.6019 95.5347 90.7862C94.5257 89.9704 94.0212 88.5214 94.0212 86.4392V79.4839H91.2842V76.0385H94.0212L94.5042 71.7559H98.1429V76.0385H102.458V79.4839H98.1429V86.4714C98.1429 87.2442 98.3038 87.7808 98.6258 88.0814C98.9693 88.3604 99.5489 88.5 100.365 88.5H102.361V92.0098H99.5596Z" fill="white"/>
<path d="M105.191 92.0098V76.0385H109.313V92.0098H105.191Z" fill="white"/>
<path d="M120.313 92.3962C118.767 92.3962 117.372 92.042 116.127 91.3336C114.903 90.6252 113.926 89.6484 113.196 88.4034C112.488 87.1368 112.134 85.6771 112.134 84.0241C112.134 82.3712 112.499 80.9222 113.229 79.6771C113.958 78.4106 114.935 77.4231 116.159 76.7147C117.404 76.0063 118.799 75.6521 120.345 75.6521C121.869 75.6521 123.243 76.0063 124.466 76.7147C125.711 77.4231 126.688 78.4106 127.397 79.6771C128.126 80.9222 128.491 82.3712 128.491 84.0241C128.491 85.6771 128.126 87.1368 127.397 88.4034C126.688 89.6484 125.711 90.6252 124.466 91.3336C123.221 92.042 121.837 92.3962 120.313 92.3962ZM120.313 88.822C121.386 88.822 122.32 88.4248 123.114 87.6306C123.908 86.8148 124.305 85.6127 124.305 84.0241C124.305 82.4356 123.908 81.2442 123.114 80.4499C122.32 79.6342 121.397 79.2263 120.345 79.2263C119.25 79.2263 118.305 79.6342 117.511 80.4499C116.738 81.2442 116.352 82.4356 116.352 84.0241C116.352 85.6127 116.738 86.8148 117.511 87.6306C118.305 88.4248 119.239 88.822 120.313 88.822Z" fill="white"/>
<path d="M130.888 92.0098V76.0385H134.527L134.849 78.7433C135.343 77.7988 136.051 77.0475 136.974 76.4893C137.919 75.9312 139.024 75.6521 140.291 75.6521C142.266 75.6521 143.801 76.2747 144.895 77.5197C145.99 78.7648 146.538 80.5895 146.538 82.9937V92.0098H142.416V83.3801C142.416 82.0063 142.137 80.9544 141.579 80.2245C141.021 79.4947 140.151 79.1297 138.971 79.1297C137.811 79.1297 136.856 79.5376 136.105 80.3533C135.375 81.1691 135.01 82.3068 135.01 83.7665V92.0098H130.888Z" fill="white"/>
<path d="M155.792 92.3962C154.375 92.3962 153.13 92.1708 152.057 91.72C150.983 91.2477 150.125 90.6037 149.481 89.788C148.837 88.9722 148.45 88.0277 148.322 86.9544H152.475C152.604 87.5769 152.948 88.1136 153.506 88.5644C154.085 88.9937 154.826 89.2084 155.728 89.2084C156.629 89.2084 157.284 89.0259 157.692 88.661C158.121 88.296 158.336 87.8774 158.336 87.4052C158.336 86.7182 158.035 86.2567 157.434 86.0206C156.833 85.763 155.996 85.5161 154.923 85.28C154.236 85.1297 153.538 84.9472 152.83 84.7325C152.121 84.5179 151.466 84.2495 150.865 83.9275C150.286 83.5841 149.813 83.1547 149.449 82.6395C149.084 82.1029 148.901 81.4481 148.901 80.6753C148.901 79.2585 149.459 78.0671 150.576 77.1011C151.713 76.1351 153.302 75.6521 155.341 75.6521C157.23 75.6521 158.733 76.0922 159.849 76.9723C160.987 77.8525 161.663 79.0653 161.878 80.6109H157.982C157.745 79.4303 156.855 78.8399 155.309 78.8399C154.536 78.8399 153.935 78.9902 153.506 79.2907C153.098 79.5913 152.894 79.9669 152.894 80.4177C152.894 80.89 153.205 81.2657 153.828 81.5447C154.45 81.8238 155.277 82.0814 156.307 82.3175C157.423 82.5751 158.443 82.8649 159.366 83.1869C160.311 83.4875 161.062 83.949 161.62 84.5715C162.178 85.1726 162.457 86.042 162.457 87.1798C162.479 88.1672 162.221 89.0581 161.685 89.8524C161.148 90.6466 160.375 91.2692 159.366 91.72C158.357 92.1708 157.166 92.3962 155.792 92.3962Z" fill="white"/>
<path d="M164.981 92.0098V76.0385H169.103V92.0098H164.981Z" fill="white"/>
<path d="M179.233 92.0098C177.559 92.0098 176.217 91.6019 175.208 90.7862C174.199 89.9704 173.695 88.5214 173.695 86.4392V79.4839H170.958V76.0385H173.695L174.178 71.7559H177.816V76.0385H182.131V79.4839H177.816V86.4714C177.816 87.2442 177.977 87.7808 178.299 88.0814C178.643 88.3604 179.223 88.5 180.038 88.5H182.035V92.0098H179.233Z" fill="white"/>
<path d="M192.055 92.3962C190.445 92.3962 189.018 92.0527 187.773 91.3658C186.528 90.6788 185.551 89.7128 184.843 88.4678C184.134 87.2227 183.78 85.7844 183.78 84.1529C183.78 82.5 184.123 81.0295 184.81 79.7415C185.519 78.4535 186.485 77.4553 187.708 76.7469C188.953 76.0171 190.413 75.6521 192.088 75.6521C193.655 75.6521 195.039 75.9956 196.241 76.6825C197.444 77.3695 198.377 78.314 199.043 79.5161C199.73 80.6968 200.073 82.017 200.073 83.4767C200.073 83.7129 200.062 83.9597 200.041 84.2173C200.041 84.4749 200.03 84.7433 200.009 85.0224H187.869C187.955 86.2674 188.385 87.2442 189.157 87.9526C189.952 88.661 190.907 89.0152 192.023 89.0152C192.86 89.0152 193.558 88.8327 194.116 88.4678C194.696 88.0814 195.125 87.5876 195.404 86.9866H199.59C199.29 87.9955 198.785 88.9186 198.077 89.7558C197.39 90.5715 196.531 91.2155 195.501 91.6878C194.492 92.16 193.343 92.3962 192.055 92.3962ZM192.088 79.0009C191.079 79.0009 190.188 79.2907 189.415 79.8703C188.642 80.4285 188.148 81.2871 187.934 82.4463H195.887C195.823 81.3945 195.436 80.5573 194.728 79.9347C194.02 79.3122 193.139 79.0009 192.088 79.0009Z" fill="white"/>
<path d="M105.191 69.02V73.036H109.313V69.02H105.191Z" fill="white"/>
<path d="M164.981 73.036V69.02H169.103V73.036H164.981Z" fill="white"/>
</svg>
