<svg width="417" height="109" viewBox="0 0 417 109" fill="none" xmlns="http://www.w3.org/2000/svg">
<path fill-rule="evenodd" clip-rule="evenodd" d="M22.8184 22.8174V85.5652H108.384V22.8174H22.8184ZM79.8618 79.8609H102.679V57.0435H79.8618V79.8609ZM102.679 51.3391V28.5217H57.0444V51.3391H102.679ZM51.3401 51.3391V28.5217H28.5227V51.3391H51.3401ZM74.1575 79.8609V57.0435H28.5227V79.8609H74.1575Z" fill="#ffffff"/>
<path d="M141.021 68.726C139 68.726 137.225 68.4046 135.694 67.7617C134.163 67.0882 132.939 66.1698 132.02 65.0065C131.102 63.8432 130.551 62.4962 130.367 60.9656H136.291C136.475 61.8534 136.964 62.6187 137.76 63.2616C138.587 63.8738 139.643 64.18 140.929 64.18C142.215 64.18 143.148 63.9198 143.73 63.3993C144.342 62.8789 144.648 62.2819 144.648 61.6084C144.648 60.6288 144.22 59.9706 143.363 59.6339C142.505 59.2665 141.311 58.9145 139.781 58.5777C138.801 58.3634 137.806 58.1032 136.796 57.7971C135.786 57.4909 134.852 57.1083 133.995 56.6491C133.168 56.1593 132.495 55.547 131.974 54.8123C131.454 54.0469 131.194 53.1132 131.194 52.0112C131.194 49.9907 131.99 48.2916 133.582 46.914C135.204 45.5364 137.469 44.8476 140.378 44.8476C143.072 44.8476 145.215 45.4752 146.807 46.7304C148.429 47.9855 149.393 49.7152 149.7 51.9193H144.143C143.806 50.2356 142.536 49.3937 140.332 49.3937C139.23 49.3937 138.373 49.608 137.76 50.0366C137.179 50.4652 136.888 51.0009 136.888 51.6438C136.888 52.3173 137.332 52.853 138.22 53.251C139.107 53.649 140.286 54.0163 141.755 54.3531C143.347 54.7204 144.801 55.1337 146.118 55.5929C147.465 56.0215 148.536 56.6797 149.332 57.5675C150.128 58.4247 150.526 59.6645 150.526 61.287C150.557 62.6952 150.189 63.9657 149.424 65.0984C148.659 66.2311 147.557 67.1188 146.118 67.7617C144.679 68.4046 142.98 68.726 141.021 68.726Z" fill="#ffffff"/>
<path d="M163.786 68.175C161.398 68.175 159.485 67.5934 158.046 66.43C156.607 65.2667 155.888 63.2003 155.888 60.2308V50.3121H151.985V45.3987H155.888L156.577 39.2913H161.766V45.3987H167.919V50.3121H161.766V60.2768C161.766 61.3788 161.995 62.1442 162.455 62.5728C162.944 62.9707 163.771 63.1697 164.934 63.1697H167.781V68.175H163.786Z" fill="#ffffff"/>
<path d="M171.588 68.175V45.3987H176.823L177.374 49.6692C178.2 48.1998 179.318 47.0365 180.726 46.1793C182.165 45.2915 183.849 44.8476 185.777 44.8476V51.0468H184.124C182.838 51.0468 181.69 51.2458 180.68 51.6438C179.67 52.0418 178.874 52.7306 178.292 53.7102C177.741 54.6898 177.466 56.0521 177.466 57.7971V68.175H171.588Z" fill="#ffffff"/>
<path d="M197.417 68.726C194.57 68.726 192.366 67.8383 190.805 66.0627C189.274 64.2871 188.509 61.685 188.509 58.2563V45.3987H194.341V57.7052C194.341 59.6645 194.739 61.1646 195.534 62.2054C196.33 63.2463 197.586 63.7667 199.3 63.7667C200.922 63.7667 202.254 63.185 203.295 62.0217C204.366 60.8584 204.902 59.2359 204.902 57.1542V45.3987H210.78V68.175H205.591L205.132 64.3177C204.428 65.6647 203.402 66.7362 202.055 67.5321C200.739 68.3281 199.193 68.726 197.417 68.726Z" fill="#ffffff"/>
<path d="M225.676 68.726C223.35 68.726 221.299 68.2209 219.523 67.2107C217.747 66.2004 216.339 64.7922 215.298 62.986C214.288 61.1799 213.783 59.1134 213.783 56.7868C213.783 54.4602 214.288 52.3938 215.298 50.5876C216.339 48.7814 217.747 47.3732 219.523 46.363C221.299 45.3528 223.35 44.8476 225.676 44.8476C228.585 44.8476 231.034 45.613 233.023 47.1436C235.013 48.6437 236.284 50.7254 236.835 53.3888H230.636C230.33 52.2867 229.717 51.4295 228.799 50.8172C227.911 50.1744 226.855 49.8529 225.63 49.8529C224.008 49.8529 222.63 50.4652 221.498 51.6897C220.365 52.9143 219.799 54.6133 219.799 56.7868C219.799 58.9604 220.365 60.6594 221.498 61.884C222.63 63.1085 224.008 63.7208 225.63 63.7208C226.855 63.7208 227.911 63.4146 228.799 62.8024C229.717 62.1901 230.33 61.3176 230.636 60.1849H236.835C236.284 62.7564 235.013 64.8228 233.023 66.3841C231.034 67.9454 228.585 68.726 225.676 68.726Z" fill="#ffffff"/>
<path d="M250.363 68.175C247.975 68.175 246.062 67.5934 244.623 66.43C243.184 65.2667 242.465 63.2003 242.465 60.2308V50.3121H238.562V45.3987H242.465L243.154 39.2913H248.343V45.3987H254.496V50.3121H248.343V60.2768C248.343 61.3788 248.572 62.1442 249.032 62.5728C249.521 62.9707 250.348 63.1697 251.511 63.1697H254.358V68.175H250.363Z" fill="#ffffff"/>
<path d="M258.395 68.175V45.3987H264.272V68.175H258.395Z" fill="#ffffff"/>
<path d="M279.959 68.726C277.755 68.726 275.765 68.2209 273.989 67.2107C272.244 66.2004 270.851 64.8075 269.81 63.032C268.8 61.2258 268.295 59.1441 268.295 56.7868C268.295 54.4296 268.816 52.3632 269.856 50.5876C270.897 48.7814 272.29 47.3732 274.035 46.363C275.811 45.3528 277.801 44.8476 280.005 44.8476C282.178 44.8476 284.137 45.3528 285.882 46.363C287.658 47.3732 289.051 48.7814 290.061 50.5876C291.102 52.3632 291.622 54.4296 291.622 56.7868C291.622 59.1441 291.102 61.2258 290.061 63.032C289.051 64.8075 287.658 66.2004 285.882 67.2107C284.107 68.2209 282.132 68.726 279.959 68.726ZM279.959 63.6289C281.489 63.6289 282.821 63.0626 283.954 61.9299C285.086 60.7666 285.653 59.0522 285.653 56.7868C285.653 54.5214 285.086 52.8224 283.954 51.6897C282.821 50.5264 281.505 49.9448 280.005 49.9448C278.443 49.9448 277.096 50.5264 275.964 51.6897C274.862 52.8224 274.311 54.5214 274.311 56.7868C274.311 59.0522 274.862 60.7666 275.964 61.9299C277.096 63.0626 278.428 63.6289 279.959 63.6289Z" fill="#ffffff"/>
<path d="M295.041 68.175V45.3987H300.23L300.689 49.256C301.393 47.909 302.403 46.8375 303.72 46.0416C305.067 45.2456 306.643 44.8476 308.45 44.8476C311.266 44.8476 313.455 45.7354 315.016 47.511C316.577 49.2866 317.358 51.8887 317.358 55.3174V68.175H311.48V55.8684C311.48 53.9092 311.082 52.4091 310.286 51.3683C309.49 50.3274 308.251 49.807 306.567 49.807C304.914 49.807 303.551 50.3887 302.48 51.552C301.439 52.7153 300.919 54.3378 300.919 56.4195V68.175H295.041Z" fill="#ffffff"/>
<path d="M330.555 68.726C328.535 68.726 326.759 68.4046 325.229 67.7617C323.698 67.0882 322.473 66.1698 321.555 65.0065C320.637 63.8432 320.086 62.4962 319.902 60.9656H325.826C326.009 61.8534 326.499 62.6187 327.295 63.2616C328.122 63.8738 329.178 64.18 330.464 64.18C331.749 64.18 332.683 63.9198 333.265 63.3993C333.877 62.8789 334.183 62.2819 334.183 61.6084C334.183 60.6288 333.755 59.9706 332.897 59.6339C332.04 59.2665 330.846 58.9145 329.316 58.5777C328.336 58.3634 327.341 58.1032 326.331 57.7971C325.321 57.4909 324.387 57.1083 323.53 56.6491C322.703 56.1593 322.03 55.547 321.509 54.8123C320.989 54.0469 320.729 53.1132 320.729 52.0112C320.729 49.9907 321.524 48.2916 323.116 46.914C324.739 45.5364 327.004 44.8476 329.913 44.8476C332.607 44.8476 334.749 45.4752 336.341 46.7304C337.964 47.9855 338.928 49.7152 339.234 51.9193H333.678C333.341 50.2356 332.071 49.3937 329.867 49.3937C328.765 49.3937 327.907 49.608 327.295 50.0366C326.713 50.4652 326.423 51.0009 326.423 51.6438C326.423 52.3173 326.867 52.853 327.754 53.251C328.642 53.649 329.821 54.0163 331.29 54.3531C332.882 54.7204 334.336 55.1337 335.653 55.5929C337 56.0215 338.071 56.6797 338.867 57.5675C339.663 58.4247 340.061 59.6645 340.061 61.287C340.091 62.6952 339.724 63.9657 338.959 65.0984C338.193 66.2311 337.091 67.1188 335.653 67.7617C334.214 68.4046 332.515 68.726 330.555 68.726Z" fill="#ffffff"/>
<path d="M343.661 68.175V45.3987H349.538V68.175H343.661Z" fill="#ffffff"/>
<path d="M363.985 68.175C361.597 68.175 359.684 67.5934 358.245 66.43C356.806 65.2667 356.087 63.2003 356.087 60.2308V50.3121H352.183V45.3987H356.087L356.775 39.2913H361.964V45.3987H368.118V50.3121H361.964V60.2768C361.964 61.3788 362.194 62.1442 362.653 62.5728C363.143 62.9707 363.97 63.1697 365.133 63.1697H367.98V68.175H363.985Z" fill="#ffffff"/>
<path d="M382.27 68.726C379.974 68.726 377.939 68.2362 376.163 67.2566C374.387 66.277 372.994 64.8994 371.984 63.1238C370.974 61.3482 370.469 59.2971 370.469 56.9705C370.469 54.6133 370.959 52.5163 371.938 50.6795C372.949 48.8427 374.326 47.4192 376.071 46.4089C377.847 45.3681 379.928 44.8476 382.316 44.8476C384.551 44.8476 386.526 45.3375 388.24 46.3171C389.954 47.2967 391.286 48.6437 392.235 50.358C393.215 52.0418 393.704 53.9245 393.704 56.0062C393.704 56.3429 393.689 56.695 393.658 57.0624C393.658 57.4297 393.643 57.8124 393.613 58.2104H376.301C376.423 59.9859 377.035 61.3788 378.138 62.3891C379.27 63.3993 380.632 63.9044 382.224 63.9044C383.418 63.9044 384.413 63.6442 385.209 63.1238C386.036 62.5728 386.648 61.8687 387.046 61.0115H393.016C392.587 62.4503 391.868 63.7667 390.857 64.9606C389.878 66.1239 388.653 67.0423 387.184 67.7158C385.745 68.3893 384.107 68.726 382.27 68.726ZM382.316 49.6233C380.877 49.6233 379.607 50.0366 378.505 50.8632C377.403 51.6591 376.699 52.8836 376.393 54.5368H387.735C387.643 53.0367 387.092 51.8428 386.082 50.955C385.071 50.0672 383.816 49.6233 382.316 49.6233Z" fill="#ffffff"/>
<path d="M258.395 35.3896V41.1168H264.272V35.3896H258.395Z" fill="#ffffff"/>
<path d="M343.66 41.1168V35.3896H349.538V41.1168H343.66Z" fill="#ffffff"/>
</svg>
